Coordinates
version=1
nRows=26
nColumns=11
inDegrees=yes

Units are S.I. units (second, meters, Newtons, ...)
If the header above contains a line with 'inDegrees', this indicates whether rotational values are in degrees (yes) or radians (no).

endheader
time	pelvis_tilt	pelvis_tx	pelvis_ty	hip_flexion_l	hip_flexion_r	knee_angle_l	knee_angle_r	ankle_angle_l	ankle_angle_r	lumbar_extension
      4.73000000	     52.28144316	      0.64275974	      1.11794109	     33.11689128	     12.22884893	    -13.17459990	    -54.99469028	     -9.86691760	    -28.16783003	    -54.71321103
      4.74000000	     52.26072815	      0.64274770	      1.11792611	     33.16497682	     12.25748322	    -13.26167041	    -54.99316550	    -10.02764335	    -28.15171736	    -54.69346593
      4.75000000	     52.23038486	      0.64274857	      1.11791603	     33.21634734	     12.29158289	    -13.38311575	    -54.99212730	    -10.24526792	    -28.19527555	    -54.66668292
      4.76000000	     52.12719209	      0.64271400	      1.11782202	     33.36553754	     12.41362804	    -13.62175458	    -54.98955450	    -10.51714156	    -28.20110881	    -54.58076108
      4.77000000	     52.31820193	      0.64289502	      1.11794462	     33.12794129	     12.19595450	    -13.75650075	    -55.01588087	     -8.78846632	    -28.16300939	    -54.72972260
      4.78000000	     52.26145643	      0.64285937	      1.11792162	     33.18910796	     12.25549265	    -14.16115516	    -54.99999701	     -9.06888469	    -28.15272065	    -54.68490302
      4.79000000	     52.13616673	      0.64290379	      1.11781997	     33.30277108	     12.39876153	    -14.77508891	    -55.00318340	     -9.40113629	    -28.17612736	    -54.56356163
      4.80000000	     51.96010953	      0.64289658	      1.11771268	     33.43903713	     12.59480902	    -15.33707926	    -54.99300305	    -10.22565279	    -28.19182768	    -54.40388213
      4.81000000	     51.79230328	      0.64299034	      1.11765843	     33.48255862	     12.77072088	    -16.02689410	    -54.97698824	    -11.03118601	    -28.23293050	    -54.24016733
      4.82000000	     51.62045882	      0.64313231	      1.11752016	     33.49673017	     12.96640738	    -16.88236252	    -54.99637296	    -11.81295386	    -28.23104351	    -54.06497115
      4.83000000	     51.38413977	      0.64331187	      1.11743694	     33.54857082	     13.20857279	    -17.93267768	    -54.98273175	    -13.09340279	    -28.19874985	    -53.82703615
      4.84000000	     51.23381181	      0.64365990	      1.11732778	     33.41878947	     13.37474011	    -19.11865768	    -55.04493347	    -14.18826641	    -28.12076291	    -53.64216954
      4.85000000	     51.07805918	      0.64410526	      1.11725495	     33.24788364	     13.53296362	    -20.41160680	    -55.04953867	    -14.97346810	    -28.18511252	    -53.43645967
      4.86000000	     50.92763799	      0.64459803	      1.11714796	     32.98180945	     13.68601823	    -21.76341949	    -55.08764003	    -15.42319331	    -28.07004869	    -53.23387994
      4.87000000	     50.79486071	      0.64514913	      1.11712395	     32.61296282	     13.81113570	    -23.18562586	    -55.12662169	    -15.78892102	    -28.02333681	    -53.03433919
      4.88000000	     50.65902255	      0.64580739	      1.11709127	     32.14585244	     13.93724944	    -24.61848834	    -55.17287940	    -16.29708125	    -27.93587425	    -52.82661389
      4.89000000	     50.51834664	      0.64645267	      1.11718905	     31.58867034	     14.04773330	    -26.06951551	    -55.19277156	    -16.64205642	    -27.87192802	    -52.60380677
      4.90000000	     50.48341833	      0.64708578	      1.11719855	     30.79840521	     14.06570142	    -27.48924252	    -55.24908876	    -16.99871810	    -27.79017463	    -52.47630734
      4.91000000	     50.54142437	      0.64757879	      1.11705550	     29.85563038	     14.01999363	    -28.93057351	    -55.35956230	    -17.32941559	    -27.66644942	    -52.44079018
      4.92000000	     50.56631738	      0.64829901	      1.11710716	     28.82373003	     13.99483669	    -30.37357361	    -55.48212488	    -17.50090790	    -27.64695741	    -52.35379744
      4.93000000	     51.14420172	      0.64989259	      1.11641223	     27.31080399	     13.92996969	    -32.20457186	    -56.59722898	    -17.32356503	    -27.13956556	    -52.64367873
      4.94000000	     50.96491296	      0.65079282	      1.11633045	     26.41431085	     14.14298042	    -33.79310394	    -56.72155601	    -17.42852486	    -27.14181147	    -52.33969344
      4.95000000	     50.78406319	      0.65166961	      1.11628306	     25.53461750	     14.41170488	    -35.53248883	    -56.88991977	    -17.91787330	    -27.51998387	    -52.03419364
      4.96000000	     50.51227589	      0.65263227	      1.11608041	     24.79940932	     14.78298802	    -37.46928876	    -57.04816107	    -18.27017976	    -27.60641502	    -51.61717203
      4.97000000	     50.25116061	      0.65353425	      1.11605490	     24.06420579	     15.14548777	    -39.51219762	    -57.17828295	    -19.00878756	    -27.96489251	    -51.21720609
      4.98000000	     49.98575340	      0.65438183	      1.11603503	     23.39598130	     15.50824666	    -41.70980895	    -57.26934295	    -20.09007365	    -28.09715251	    -50.82089211
